<svg width="44" height="58" viewBox="0 0 44 58" fill="none" xmlns="http://www.w3.org/2000/svg">
<g id="Frame" clip-path="url(#clip0_4_55)">
<path id="Vector" d="M36.1835 30.4387C36.1608 26.2812 38.0455 23.1434 41.8603 20.8324C39.7258 17.7851 36.5014 16.1086 32.2439 15.7801C28.2134 15.4629 23.8082 18.125 22.1961 18.125C20.493 18.125 16.5874 15.8934 13.522 15.8934C7.18677 15.9953 0.454163 20.9344 0.454163 30.9824C0.454163 33.9504 0.999129 37.0165 2.08906 40.1808C3.54231 44.3383 8.78761 54.5336 14.26 54.3637C17.1211 54.2957 19.142 52.3359 22.8659 52.3359C26.4763 52.3359 28.3496 54.3637 31.54 54.3637C37.0577 54.2844 41.8035 45.018 43.1886 40.8492C35.7862 37.3715 36.1835 30.6539 36.1835 30.4387ZM29.7575 11.8379C32.857 8.16758 32.5731 4.82578 32.4823 3.625C29.7461 3.78359 26.5785 5.48281 24.7733 7.57851C22.7864 9.82148 21.617 12.5969 21.8668 15.7234C24.8301 15.95 27.5322 14.432 29.7575 11.8379Z" fill="#EADEDA"/>
</g>
<defs>
<clipPath id="clip0_4_55">
<rect width="43.5973" height="58" fill="white"/>
</clipPath>
</defs>
</svg>
