<svg width="59" height="58" viewBox="0 0 59 58" fill="none" xmlns="http://www.w3.org/2000/svg">
<path id="Vector" d="M29.0129 14.1295C20.7818 14.1295 14.1425 20.7688 14.1425 29C14.1425 37.2312 20.7818 43.8705 29.0129 43.8705C37.2441 43.8705 43.8834 37.2312 43.8834 29C43.8834 20.7688 37.2441 14.1295 29.0129 14.1295ZM29.0129 38.6677C23.6937 38.6677 19.3452 34.3321 19.3452 29C19.3452 23.6679 23.6808 19.3323 29.0129 19.3323C34.3451 19.3323 38.6807 23.6679 38.6807 29C38.6807 34.3321 34.3321 38.6677 29.0129 38.6677ZM47.9601 13.5213C47.9601 15.4496 46.4071 16.9897 44.4917 16.9897C42.5633 16.9897 41.0232 15.4367 41.0232 13.5213C41.0232 11.6058 42.5762 10.0528 44.4917 10.0528C46.4071 10.0528 47.9601 11.6058 47.9601 13.5213ZM57.8091 17.0415C57.5891 12.3953 56.5278 8.27971 53.124 4.88888C49.7332 1.49805 45.6176 0.436796 40.9714 0.203838C36.1828 -0.067946 21.8301 -0.067946 17.0415 0.203838C12.4082 0.423854 8.29264 1.48511 4.88887 4.87593C1.4851 8.26676 0.436795 12.3823 0.203838 17.0286C-0.067946 21.8171 -0.067946 36.1699 0.203838 40.9585C0.423853 45.6047 1.4851 49.7203 4.88887 53.1111C8.29264 56.502 12.3953 57.5632 17.0415 57.7962C21.8301 58.0679 36.1828 58.0679 40.9714 57.7962C45.6176 57.5761 49.7332 56.5149 53.124 53.1111C56.5149 49.7203 57.5761 45.6047 57.8091 40.9585C58.0809 36.1699 58.0809 21.8301 57.8091 17.0415ZM51.6228 46.0965C50.6133 48.6332 48.659 50.5874 46.1094 51.6098C42.2915 53.1241 33.232 52.7746 29.0129 52.7746C24.7938 52.7746 15.7214 53.1111 11.9164 51.6098C9.37978 50.6004 7.42552 48.6461 6.4031 46.0965C4.88887 42.2786 5.23831 33.2191 5.23831 29C5.23831 24.7809 4.90182 15.7085 6.4031 11.9035C7.41258 9.36684 9.36684 7.41258 11.9164 6.39016C15.7343 4.87593 24.7938 5.22537 29.0129 5.22537C33.232 5.22537 42.3045 4.88888 46.1094 6.39016C48.6461 7.39964 50.6003 9.3539 51.6228 11.9035C53.137 15.7214 52.7875 24.7809 52.7875 29C52.7875 33.2191 53.137 42.2915 51.6228 46.0965Z" fill="#EADEDA"/>
</svg>
