<svg width="57" height="58" viewBox="0 0 57 58" fill="none" xmlns="http://www.w3.org/2000/svg">
<g id="Frame" clip-path="url(#clip0_4_53)">
<path id="Vector" d="M28.0225 0.90625C12.5536 0.90625 0 13.4918 0 29C0 44.5082 12.5536 57.0938 28.0225 57.0938C43.4913 57.0938 56.045 44.5082 56.045 29C56.045 13.4918 43.4913 0.90625 28.0225 0.90625ZM39.401 42.2426C38.9264 42.2426 38.6326 42.0953 38.1919 41.8348C31.1411 37.5754 22.9378 37.3941 14.8361 39.0594C14.3954 39.1727 13.8192 39.3539 13.4915 39.3539C12.3954 39.3539 11.7062 38.4816 11.7062 37.5641C11.7062 36.3973 12.3954 35.8422 13.2429 35.6609C22.4971 33.6105 31.9547 33.7918 40.0224 38.6289C40.7117 39.0707 41.1185 39.4672 41.1185 40.498C41.1185 41.5289 40.3162 42.2426 39.401 42.2426ZM42.4405 34.8113C41.8529 34.8113 41.4575 34.5508 41.0507 34.3355C33.9886 30.1441 23.4575 28.4563 14.0903 31.0051C13.548 31.1523 13.2542 31.2996 12.7457 31.2996C11.5367 31.2996 10.5536 30.3141 10.5536 29.102C10.5536 27.8898 11.1412 27.0855 12.305 26.757C15.4463 25.8734 18.6553 25.2164 23.3558 25.2164C30.6891 25.2164 37.7739 27.0402 43.3558 30.3707C44.271 30.9145 44.6326 31.6168 44.6326 32.6023C44.6213 33.8258 43.6721 34.8113 42.4405 34.8113ZM45.9433 26.1793C45.3557 26.1793 44.9942 26.032 44.4857 25.7375C36.4405 20.923 22.0564 19.7676 12.7457 22.373C12.3389 22.4863 11.8305 22.6676 11.2881 22.6676C9.79657 22.6676 8.65533 21.5008 8.65533 19.9941C8.65533 18.4535 9.60448 17.5813 10.6214 17.2867C14.5988 16.1199 19.0508 15.5648 23.8982 15.5648C32.1468 15.5648 40.7908 17.2867 47.1071 20.9797C47.9885 21.4895 48.5648 22.1918 48.5648 23.5398C48.5648 25.0805 47.3218 26.1793 45.9433 26.1793Z" fill="#EADEDA"/>
</g>
<defs>
<clipPath id="clip0_4_53">
<rect width="56.045" height="58" fill="white"/>
</clipPath>
</defs>
</svg>
