<svg width="66" height="58" viewBox="0 0 66 58" fill="none" xmlns="http://www.w3.org/2000/svg">
<g id="Frame">
<path id="Vector" d="M62.188 14.0563C61.4773 11.3772 59.3836 9.2672 56.7251 8.55115C51.9065 7.25 32.5843 7.25 32.5843 7.25C32.5843 7.25 13.2623 7.25 8.44357 8.55115C5.78513 9.26731 3.69136 11.3772 2.98073 14.0563C1.68958 18.9123 1.68958 29.044 1.68958 29.044C1.68958 29.044 1.68958 39.1756 2.98073 44.0316C3.69136 46.7107 5.78513 48.7328 8.44357 49.4489C13.2623 50.75 32.5843 50.75 32.5843 50.75C32.5843 50.75 51.9064 50.75 56.7251 49.4489C59.3836 48.7328 61.4773 46.7107 62.188 44.0316C63.4791 39.1756 63.4791 29.044 63.4791 29.044C63.4791 29.044 63.4791 18.9123 62.188 14.0563ZM26.2649 38.2427V19.8452L42.4144 29.0442L26.2649 38.2427Z" fill="#EADEDA"/>
</g>
</svg>
